<mxfile host="65bd71144e">
    <diagram id="IC270A94qIcjJtK1l19n" name="Page-1">
        <mxGraphModel dx="795" dy="692" grid="1" gridSize="10" guides="1" tooltips="1" connect="1" arrows="1" fold="1" page="1" pageScale="1" pageWidth="1200" pageHeight="1920" math="0" shadow="0">
            <root>
                <mxCell id="0"/>
                <mxCell id="1" parent="0"/>
                <mxCell id="3" value="b" style="whiteSpace=wrap;html=1;aspect=fixed;" vertex="1" parent="1">
                    <mxGeometry x="80" y="90" width="80" height="80" as="geometry"/>
                </mxCell>
                <mxCell id="4" value="a" style="whiteSpace=wrap;html=1;aspect=fixed;" vertex="1" parent="1">
                    <mxGeometry x="160" y="90" width="80" height="80" as="geometry"/>
                </mxCell>
                <mxCell id="7" value="a" style="whiteSpace=wrap;html=1;aspect=fixed;" vertex="1" parent="1">
                    <mxGeometry x="320" y="90" width="80" height="80" as="geometry"/>
                </mxCell>
                <mxCell id="8" value="c" style="whiteSpace=wrap;html=1;aspect=fixed;" vertex="1" parent="1">
                    <mxGeometry x="240" y="90" width="80" height="80" as="geometry"/>
                </mxCell>
                <mxCell id="29" value="a" style="whiteSpace=wrap;html=1;aspect=fixed;" vertex="1" parent="1">
                    <mxGeometry x="400" y="90" width="80" height="80" as="geometry"/>
                </mxCell>
                <mxCell id="30" value="b" style="whiteSpace=wrap;html=1;aspect=fixed;" vertex="1" parent="1">
                    <mxGeometry x="80" y="180" width="80" height="80" as="geometry"/>
                </mxCell>
                <mxCell id="31" value="a" style="whiteSpace=wrap;html=1;aspect=fixed;" vertex="1" parent="1">
                    <mxGeometry x="160" y="180" width="80" height="80" as="geometry"/>
                </mxCell>
                <mxCell id="32" value="a" style="whiteSpace=wrap;html=1;aspect=fixed;" vertex="1" parent="1">
                    <mxGeometry x="320" y="180" width="80" height="80" as="geometry"/>
                </mxCell>
                <mxCell id="33" value="c" style="whiteSpace=wrap;html=1;aspect=fixed;" vertex="1" parent="1">
                    <mxGeometry x="240" y="180" width="80" height="80" as="geometry"/>
                </mxCell>
                <mxCell id="34" value="b" style="whiteSpace=wrap;html=1;aspect=fixed;" vertex="1" parent="1">
                    <mxGeometry x="80" y="380" width="80" height="80" as="geometry"/>
                </mxCell>
                <mxCell id="35" value="a" style="whiteSpace=wrap;html=1;aspect=fixed;" vertex="1" parent="1">
                    <mxGeometry x="160" y="380" width="80" height="80" as="geometry"/>
                </mxCell>
                <mxCell id="36" value="c" style="whiteSpace=wrap;html=1;aspect=fixed;" vertex="1" parent="1">
                    <mxGeometry x="240" y="380" width="80" height="80" as="geometry"/>
                </mxCell>
                <mxCell id="37" value="b" style="whiteSpace=wrap;html=1;aspect=fixed;" vertex="1" parent="1">
                    <mxGeometry x="540" y="290" width="80" height="80" as="geometry"/>
                </mxCell>
                <mxCell id="38" value="a" style="whiteSpace=wrap;html=1;aspect=fixed;" vertex="1" parent="1">
                    <mxGeometry x="620" y="290" width="80" height="80" as="geometry"/>
                </mxCell>
                <mxCell id="41" value="a" style="whiteSpace=wrap;html=1;aspect=fixed;" vertex="1" parent="1">
                    <mxGeometry x="80" y="280" width="80" height="80" as="geometry"/>
                </mxCell>
                <mxCell id="42" value="a" style="whiteSpace=wrap;html=1;aspect=fixed;" vertex="1" parent="1">
                    <mxGeometry x="240" y="280" width="80" height="80" as="geometry"/>
                </mxCell>
                <mxCell id="43" value="c" style="whiteSpace=wrap;html=1;aspect=fixed;" vertex="1" parent="1">
                    <mxGeometry x="160" y="280" width="80" height="80" as="geometry"/>
                </mxCell>
                <mxCell id="44" value="a" style="whiteSpace=wrap;html=1;aspect=fixed;" vertex="1" parent="1">
                    <mxGeometry x="320" y="280" width="80" height="80" as="geometry"/>
                </mxCell>
                <mxCell id="45" value="a" style="whiteSpace=wrap;html=1;aspect=fixed;" vertex="1" parent="1">
                    <mxGeometry x="80" y="480" width="80" height="80" as="geometry"/>
                </mxCell>
                <mxCell id="46" value="a" style="whiteSpace=wrap;html=1;aspect=fixed;" vertex="1" parent="1">
                    <mxGeometry x="240" y="480" width="80" height="80" as="geometry"/>
                </mxCell>
                <mxCell id="47" value="c" style="whiteSpace=wrap;html=1;aspect=fixed;" vertex="1" parent="1">
                    <mxGeometry x="160" y="480" width="80" height="80" as="geometry"/>
                </mxCell>
                <mxCell id="48" value="a" style="whiteSpace=wrap;html=1;aspect=fixed;" vertex="1" parent="1">
                    <mxGeometry x="160" y="580" width="80" height="80" as="geometry"/>
                </mxCell>
                <mxCell id="49" value="c" style="whiteSpace=wrap;html=1;aspect=fixed;" vertex="1" parent="1">
                    <mxGeometry x="80" y="580" width="80" height="80" as="geometry"/>
                </mxCell>
                <mxCell id="50" value="a" style="whiteSpace=wrap;html=1;aspect=fixed;" vertex="1" parent="1">
                    <mxGeometry x="240" y="580" width="80" height="80" as="geometry"/>
                </mxCell>
                <mxCell id="51" value="a" style="whiteSpace=wrap;html=1;aspect=fixed;" vertex="1" parent="1">
                    <mxGeometry x="540" y="380" width="80" height="80" as="geometry"/>
                </mxCell>
                <mxCell id="52" value="c" style="whiteSpace=wrap;html=1;aspect=fixed;" vertex="1" parent="1">
                    <mxGeometry x="620" y="380" width="80" height="80" as="geometry"/>
                </mxCell>
                <mxCell id="53" value="a" style="whiteSpace=wrap;html=1;aspect=fixed;" vertex="1" parent="1">
                    <mxGeometry x="620" y="470" width="80" height="80" as="geometry"/>
                </mxCell>
                <mxCell id="54" value="c" style="whiteSpace=wrap;html=1;aspect=fixed;" vertex="1" parent="1">
                    <mxGeometry x="540" y="470" width="80" height="80" as="geometry"/>
                </mxCell>
                <mxCell id="55" value="a" style="whiteSpace=wrap;html=1;aspect=fixed;" vertex="1" parent="1">
                    <mxGeometry x="540" y="560" width="80" height="80" as="geometry"/>
                </mxCell>
                <mxCell id="56" value="a" style="whiteSpace=wrap;html=1;aspect=fixed;" vertex="1" parent="1">
                    <mxGeometry x="620" y="560" width="80" height="80" as="geometry"/>
                </mxCell>
                <mxCell id="57" value="b" style="whiteSpace=wrap;html=1;aspect=fixed;" vertex="1" parent="1">
                    <mxGeometry x="80" y="700" width="80" height="80" as="geometry"/>
                </mxCell>
                <mxCell id="58" value="a" style="whiteSpace=wrap;html=1;aspect=fixed;" vertex="1" parent="1">
                    <mxGeometry x="170" y="700" width="80" height="80" as="geometry"/>
                </mxCell>
                <mxCell id="59" value="a" style="whiteSpace=wrap;html=1;aspect=fixed;" vertex="1" parent="1">
                    <mxGeometry x="350" y="700" width="80" height="80" as="geometry"/>
                </mxCell>
                <mxCell id="60" value="c" style="whiteSpace=wrap;html=1;aspect=fixed;" vertex="1" parent="1">
                    <mxGeometry x="260" y="700" width="80" height="80" as="geometry"/>
                </mxCell>
                <mxCell id="61" value="a" style="whiteSpace=wrap;html=1;aspect=fixed;" vertex="1" parent="1">
                    <mxGeometry x="440" y="700" width="80" height="80" as="geometry"/>
                </mxCell>
                <mxCell id="62" value="start" style="triangle;whiteSpace=wrap;html=1;rotation=90;" vertex="1" parent="1">
                    <mxGeometry x="105" y="457.5" width="30" height="45" as="geometry"/>
                </mxCell>
                <mxCell id="63" value="end&lt;br&gt;" style="triangle;whiteSpace=wrap;html=1;rotation=90;" vertex="1" parent="1">
                    <mxGeometry x="265" y="460" width="30" height="40" as="geometry"/>
                </mxCell>
                <mxCell id="64" value="false" style="text;html=1;strokeColor=none;fillColor=none;align=center;verticalAlign=middle;whiteSpace=wrap;rounded=0;" vertex="1" parent="1">
                    <mxGeometry x="510" y="115" width="60" height="30" as="geometry"/>
                </mxCell>
                <mxCell id="65" value="false" style="text;html=1;strokeColor=none;fillColor=none;align=center;verticalAlign=middle;whiteSpace=wrap;rounded=0;" vertex="1" parent="1">
                    <mxGeometry x="330" y="605" width="60" height="30" as="geometry"/>
                </mxCell>
                <mxCell id="66" value="true" style="text;html=1;strokeColor=none;fillColor=none;align=center;verticalAlign=middle;whiteSpace=wrap;rounded=0;" vertex="1" parent="1">
                    <mxGeometry x="330" y="505" width="60" height="30" as="geometry"/>
                </mxCell>
                <mxCell id="67" value="false" style="text;html=1;strokeColor=none;fillColor=none;align=center;verticalAlign=middle;whiteSpace=wrap;rounded=0;" vertex="1" parent="1">
                    <mxGeometry x="330" y="405" width="60" height="30" as="geometry"/>
                </mxCell>
                <mxCell id="68" value="false" style="text;html=1;strokeColor=none;fillColor=none;align=center;verticalAlign=middle;whiteSpace=wrap;rounded=0;" vertex="1" parent="1">
                    <mxGeometry x="410" y="305" width="60" height="30" as="geometry"/>
                </mxCell>
                <mxCell id="69" value="false" style="text;html=1;strokeColor=none;fillColor=none;align=center;verticalAlign=middle;whiteSpace=wrap;rounded=0;" vertex="1" parent="1">
                    <mxGeometry x="410" y="205" width="60" height="30" as="geometry"/>
                </mxCell>
                <mxCell id="70" value="false" style="text;html=1;strokeColor=none;fillColor=none;align=center;verticalAlign=middle;whiteSpace=wrap;rounded=0;" vertex="1" parent="1">
                    <mxGeometry x="700" y="315" width="60" height="30" as="geometry"/>
                </mxCell>
                <mxCell id="71" value="false" style="text;html=1;strokeColor=none;fillColor=none;align=center;verticalAlign=middle;whiteSpace=wrap;rounded=0;" vertex="1" parent="1">
                    <mxGeometry x="700" y="405" width="60" height="30" as="geometry"/>
                </mxCell>
                <mxCell id="72" value="false" style="text;html=1;strokeColor=none;fillColor=none;align=center;verticalAlign=middle;whiteSpace=wrap;rounded=0;" vertex="1" parent="1">
                    <mxGeometry x="710" y="495" width="60" height="30" as="geometry"/>
                </mxCell>
                <mxCell id="73" value="true" style="text;html=1;strokeColor=none;fillColor=none;align=center;verticalAlign=middle;whiteSpace=wrap;rounded=0;" vertex="1" parent="1">
                    <mxGeometry x="710" y="590" width="60" height="30" as="geometry"/>
                </mxCell>
            </root>
        </mxGraphModel>
    </diagram>
</mxfile>